<svg fill="none" height="17" viewBox="0 0 109 17" width="109" xmlns="http://www.w3.org/2000/svg"><path d="m0 0h109v17h-109z" fill="#fff"/><g fill="#000"><path d="m29.5776 2.75325c-.1797-.06494-.3209-.13637-.4236-.21429-.1027-.09091-.154-.25325-.154-.48701 0-.4026.276-.6039.8279-.6039h2.0603l3.331 10.44155 3.2348-10.44155h1.3478c.3594 0 .5904.1039.6931.31169.1027.19481.1284.41558.0771.66234l-4.4863 13.42212h-1.964l-3.9087-11.70784c-.1668-.50649-.2888-.85065-.3658-1.03246-.077-.18182-.1669-.29871-.2696-.35065z"/><path d="m43.8837 15.8052h-2.4068v-7.81169c0-.4026-.0321-.67533-.0963-.81819-.0641-.14285-.1347-.23376-.2118-.27272-.231-.06494-.4043-.14286-.5198-.23377-.1156-.09091-.1733-.22727-.1733-.40909 0-.44156.276-.66234.8279-.66234h1.7522c.552 0 .8279.23377.8279.7013zm.0771-13.22728c0 .41559-.1477.77273-.4429 1.07143-.2824.28571-.629.42857-1.0397.42857-.4108 0-.7574-.14286-1.0398-.42857-.2824-.2987-.4236-.65584-.4236-1.07143 0-.41558.1412-.77273.4236-1.07143.2824-.31168.629-.46753 1.0398-.46753.4107 0 .7573.15585 1.0397.46753.2952.2987.4429.65585.4429 1.07143z"/><path d="m48.139 15.8052h-2.3876v-12.4091c0-.40259-.0257-.66883-.077-.7987-.0513-.14285-.1284-.23376-.2311-.27272-.1797-.05195-.3465-.11689-.5006-.19481-.154-.09091-.231-.25974-.231-.50649 0-.41559.2695-.62338.8087-.62338h1.7906c.552 0 .828.21429.828.64286v7.14935l3.0614-3.19481h2.7534l-4.4092 4.36364 4.7751 5.84416h-2.7727l-3.408-4.3247z"/><path d="m57.2079 1.64286v3.95454h2.5993v1.57792h-2.5801v6.03898c0 .4675.077.7727.2311.9156.1668.1428.4171.2143.7509.2143h.5199c.1797-.013.5968-.1039 1.2515-.2728v1.6364c-.4364.1428-.86.2273-1.2708.2532-.3979.026-.706.039-.9242.039-.6547 0-1.1938-.0714-1.6174-.2143-.4236-.1558-.7252-.3766-.905-.6623-.2053-.2598-.3273-.5844-.3658-.974-.0257-.4026-.0385-.8182-.0385-1.2468v-5.72728h-1.3863v-1.57792h1.3863v-1.5z"/><path d="m63.3885 11.2273c-.937-.3247-1.6943-.7338-2.272-1.2273-.5648-.50649-.8472-1.11688-.8472-1.83117 0-.87013.3081-1.56493.9242-2.08441.6162-.53247 1.5276-.81819 2.7342-.85715.5263-.02597 1.0461.01948 1.5596.13637.5263.10389 1.0397.27922 1.5403.52597v2.35714c-.7445-.64935-1.3478-1.04545-1.8099-1.18831-.4492-.15584-.8536-.22727-1.213-.21428-.4236 0-.7638.0909-1.0205.27272-.2439.18182-.3787.46104-.4043.83767-.0129.32467.1668.62337.5391.8961.3851.25974.9242.52597 1.6174.7987 1.0397.38965 1.7842.83115 2.2335 1.32465.4621.4935.6931 1.0715.6931 1.7338 0 1-.3594 1.7922-1.0782 2.3766-.706.5714-1.7008.8572-2.9845.8572-.6289 0-1.2194-.0845-1.7714-.2533-.5391-.1818-.9434-.3961-1.213-.6428-.2824-.2468-.43-.4676-.4429-.6624-.0128-.2078.0257-.3831.1156-.526.1925-.2727.4364-.4155.7316-.4285.2953-.026.5713.0779.828.3117.231.1688.5134.3116.8472.4285.3337.1039.6354.1559.9049.1559.629-.026 1.0847-.1948 1.3671-.5065.2953-.3117.4044-.6948.3273-1.1494-.0256-.2207-.1668-.4545-.4236-.7013-.2567-.2467-.7509-.4935-1.4826-.7402z"/><path d="m71.2444 15.8052h-2.3876v-12.4091c0-.40259-.0256-.66883-.077-.7987-.0513-.14285-.1284-.23376-.231-.27272-.1798-.05195-.3466-.11689-.5007-.19481-.154-.09091-.231-.25974-.231-.50649 0-.41559.2695-.62338.8087-.62338h1.7906c.552 0 .828.21429.828.64286v7.14935l3.0615-3.19481h2.7533l-4.4092 4.36364 4.7751 5.84416h-2.7727l-3.408-4.3247z"/><path d="m80.1977 15.8052h-2.4068v-7.81169c0-.4026-.0321-.67533-.0963-.81819-.0641-.14285-.1347-.23376-.2118-.27272-.231-.06494-.4043-.14286-.5198-.23377-.1156-.09091-.1733-.22727-.1733-.40909 0-.44156.276-.66234.8279-.66234h1.7522c.5519 0 .8279.23377.8279.7013zm.077-13.22728c0 .41559-.1476.77273-.4428 1.07143-.2824.28571-.629.42857-1.0397.42857-.4108 0-.7574-.14286-1.0398-.42857-.2824-.2987-.4236-.65584-.4236-1.07143 0-.41558.1412-.77273.4236-1.07143.2824-.31168.629-.46753 1.0398-.46753.4107 0 .7573.15585 1.0397.46753.2952.2987.4428.65585.4428 1.07143z"/><path d="m86.0318 12.0455 2.1758-6.4481h1.1938c.4364 0 .6996.11039.7894.33117.0899.22078.1091.44156.0578.66234l-3.4273 9.27269h-1.6559l-3.4081-8.39607c-.0898-.20779-.154-.36363-.1925-.46753-.0257-.11688-.0963-.19481-.2118-.23377-.1412-.03896-.2567-.0974-.3466-.17532-.1027-.07792-.154-.23377-.154-.46753 0-.35065.276-.52598.8279-.52598h1.9255z"/><path d="m90.2871 10.6623c0-1.5584.3979-2.83113 1.1938-3.81814.8087-1 1.9768-1.5 3.5043-1.5 1.5404 0 2.7149.5 3.5236 1.5.8087.98701 1.213 2.25974 1.213 3.81814 0 1.5455-.4043 2.8117-1.213 3.7987-.8087.9871-1.9832 1.4806-3.5236 1.4806-1.5275 0-2.6956-.4935-3.5043-1.4806-.7959-.987-1.1938-2.2532-1.1938-3.7987zm2.5223 0c0 1.2728.2247 2.2078.6739 2.8052.4493.5844.9499.8767 1.5019.8767.5648 0 1.0718-.2923 1.5211-.8767.4621-.5974.6932-1.5324.6932-2.8052 0-1.28568-.2311-2.22724-.6932-2.82464-.4493-.5974-.9563-.8961-1.5211-.8961-.552 0-1.0526.2987-1.5019.8961-.4492.5974-.6739 1.53896-.6739 2.82464z"/><path d="m101.108 7.99351c0-.41559-.032-.68832-.096-.81819-.051-.14285-.122-.23376-.212-.27272-.205-.05195-.379-.12338-.52-.21429-.128-.10389-.192-.25974-.192-.46753 0-.41559.276-.62338.828-.62338h1.694c.565 0 .847.23377.847.7013v.15585c.09-.09091.186-.17533.289-.25325.578-.50649 1.335-.75974 2.272-.75974h.982v2.18182c-1.232-.27273-2.221-.12338-2.965.44805-.218.15584-.411.37662-.578.66234v7.07143h-2.349z"/><rect height="2" rx="1" width="15" x="10" y="14"/><rect height="2" rx="1" width="15" x="10" y="12"/><rect height="2" rx="1" width="15" x="10" y="10"/><rect height="2" rx="1" width="15" x="10" y="8"/><rect height="2" rx="1" transform="matrix(.32556815 .94551858 -.94551858 .32556815 17.643846 -21.21102)" width="15" x="23.6903" y="1.76237"/></g><ellipse cx="17.6" cy="8.2" fill="#555" rx="7.2" ry=".5"/><ellipse cx="17.5" cy="15.5" fill="#000" rx="7.5" ry="1.5"/><ellipse cx="17.5" cy="8.2" fill="#000" rx="1.5" ry=".2"/><path d="m19.0053 17 8.9947-.8323v-1.2485c-6.1631-.6937-20.08822-1.6647-26.48447 0-6.39625 1.6646 8.99477 2.0808 17.48977 2.0808z" fill="#000" fill-opacity=".1"/></svg>